<svg xmlns="http://www.w3.org/2000/svg" viewBox="0 0 24 24" id="cloudflare">
  <path fill="#F4A83F" d="m21.573 14.931-1.921.114c-1.041.05-2.158.899-2.553 1.94l-.141.363a.103.103 0 0 0 .099.144h6.598c.077 0 .147-.05.169-.128.112-.414.176-.849.176-1.298 0-2.637-2.125-4.791-4.734-4.791v-.005c-.077 0-.161 0-.238.011-.057 0-.105.043-.127.099l-.338 1.19c-.147.514-.092.984.154 1.334.226.32.606.505 1.062.526l1.844.115c.056 0 .105.026.133.071a.209.209 0 0 1 .021.158.24.24 0 0 1-.204.157z"></path>
  <path fill="#ED7E1F" d="M0 16.817c0 .177.014.356.035.534a.174.174 0 0 0 .169.149h15.982a.217.217 0 0 0 .203-.157l.12-.433v-.001c.147-.514.091-.984-.155-1.333-.225-.32-.605-.506-1.062-.527l-8.659-.114h-.002a.154.154 0 0 1-.131-.072v-.001a.2.2 0 0 1-.021-.157.24.24 0 0 1 .204-.158l8.736-.114c1.035-.05 2.16-.899 2.554-1.94l.499-1.319a.286.286 0 0 0 .015-.17c-.563-2.579-2.835-4.504-5.55-4.504-2.504 0-4.628 1.64-5.388 3.913a2.556 2.556 0 0 0-1.794-.506c-1.203.121-2.166 1.098-2.286 2.317-.028.314-.007.621.063.906C1.568 13.187 0 14.813 0 16.817z"></path>
</svg>
